<svg width="50" height="49" viewBox="0 0 50 49" fill="none" xmlns="http://www.w3.org/2000/svg">
<path d="M25 33.6875C30.1777 33.6875 34.375 29.5741 34.375 24.5C34.375 19.4259 30.1777 15.3125 25 15.3125C19.8223 15.3125 15.625 19.4259 15.625 24.5C15.625 29.5741 19.8223 33.6875 25 33.6875Z" stroke="#505050" stroke-width="2" stroke-linecap="round" stroke-linejoin="round"/>
<path d="M35.8713 12.458C36.3717 12.8921 36.8447 13.3557 37.2878 13.8461L42.6242 14.5928C43.4896 16.0696 44.1568 17.6497 44.6093 19.2939L41.376 23.5186C41.376 23.5186 41.4166 24.8277 41.3761 25.4814L44.6107 29.7074C44.157 31.3514 43.4887 32.931 42.6223 34.4072L37.2878 35.154C37.2878 35.154 36.372 36.1078 35.8716 36.542L35.1096 41.7716C33.6027 42.6197 31.9903 43.2736 30.3126 43.717L26.0019 40.5485C25.3348 40.5883 24.6659 40.5883 23.9988 40.5485L19.6866 43.7184C18.0091 43.2738 16.3972 42.6189 14.8909 41.7698L14.129 36.5422C13.6286 36.1081 13.1556 35.6445 12.7126 35.1541L7.37615 34.4074C6.51077 32.9306 5.84355 31.3505 5.39105 29.7063L8.62435 25.4816C8.62435 25.4816 8.58368 24.1725 8.62422 23.5188L5.38965 19.2928C5.84328 17.6489 6.51159 16.0692 7.37799 14.593L12.7123 13.8464C13.1553 13.356 13.6283 12.8924 14.1287 12.4582L14.8907 7.22857C16.3976 6.38049 18.01 5.72662 19.6878 5.28318L23.9984 8.45169C24.6655 8.41195 25.3344 8.41195 26.0015 8.45168L30.3138 5.2818C31.9912 5.72636 33.6031 6.3813 35.1095 7.23038L35.8713 12.458Z" stroke="#505050" stroke-width="2" stroke-linecap="round" stroke-linejoin="round"/>
</svg>
